PathFileType	4	(X/Y/Z)	3_coords_data.trc
DataRate	CameraRate	NumFrames	NumMarkers	Units	OrigDataRate	OrigDataStartFrame	OrigNumFrames
30.0	30.0	6	21	m	30.0	1	48
Frame#	Time	THUMB_TIP	THUMB_IP	THUMB_MCP	THUMB_CMC	INDEX_TIP	INDEX_DIP	INDEX_PIP	INDEX_MCP	MIDDLE_TIP	MIDDLE_DIP	MIDDLE_PIP	MIDDLE_MCP	RING_TIP	RING_DIP	RING_PIP	RING_MCP	PINKY_TIP	PINKY_DIP	PINKY_PIP	PINKY_MCP	WRIST
X1	Y1	Z1	X2	Y2	Z2	X3	Y3	Z3	X4	Y4	Z4	X5	Y5	Z5	X6	Y6	Z6	X7	Y7	Z7	X8	Y8	Z8	X9	Y9	Z9	X10	Y10	Z10	X11	Y11	Z11	X12	Y12	Z12	X13	Y13	Z13	X14	Y14	Z14	X15	Y15	Z15	X16	Y16	Z16	X17	Y17	Z17	X18	Y18	Z18	X19	Y19	Z19	X20	Y20	Z20	X21	Y21	Z21
0	-2.749317978547796e-18	0.5065113357294242	-0.010815024312861743	-0.16552327589660298	0.4977226794457281	-0.015271626469308575	-0.14476518788382575	0.47965112525676257	-0.0236299472198227	-0.12084077768363899	0.4739530107633284	-0.03032947172048439	-0.07710820558131748	0.5749386882524331	0.027036037537150004	-0.16714685140953733	0.5610587065848539	0.020751111202674144	-0.15735676408214955	0.5417560305284304	0.013118897058472911	-0.14317346977801043	0.5118000034192066	-0.003210312427872286	-0.11768564030230755	0.5918378512552973	0.03820122976274121	-0.14875323304821897	0.5782604270790553	0.031050126871441264	-0.13913474667163972	0.5547381455403563	0.0216979517251209	-0.12469007148502775	0.5228817572846112	0.0015752919988443193	-0.1006818017881147	0.6031103887698291	0.03179329956265975	-0.11259447229861552	0.5870948135768471	0.02755001997605544	-0.10548842349581034	0.564286022702642	0.02267577839869117	-0.09676026178200836	0.5288278931075245	0.009030028420556446	-0.08293147343486496	0.6001359755061765	0.021130621729037347	-0.07877296635828701	0.5837477120937009	0.018200396728416668	-0.0747931920218391	0.5634746012995986	0.014958272003172235	-0.07039983055298493	0.5317128286720789	-0.0010240717287814949	-0.06434690238626817	0.4622830810018608	-0.023011742144276925	-0.051989820119430985
1	0.03333333333333339	0.506026235598771	-0.011319975709030983	-0.1659876206353963	0.4975107414482145	-0.015918665216333117	-0.1451468333617047	0.4796518339778668	-0.023917700131482755	-0.120941568141266	0.47337632555167086	-0.03060689250789761	-0.0772865260574006	0.5738778795361413	0.027612696047225604	-0.1680723794941954	0.5603555598164457	0.020835819032908542	-0.15811141531741246	0.541529576257105	0.012418502551909572	-0.14373292585286368	0.5116085228961116	-0.0034056892040279507	-0.11788797247623894	0.5916461290005138	0.038477104854623745	-0.14910421362476362	0.578188229457657	0.031060578939363093	-0.1395188037095516	0.5552880419372654	0.020845668357800662	-0.1246646270800113	0.522726967633348	0.0016741279678066379	-0.10082398111037372	0.6032035880656026	0.03286433625930596	-0.11214053785298261	0.5872850886419426	0.02800440708179175	-0.10521360025484572	0.5647569643772641	0.02197980991543813	-0.09647473161534958	0.5293833009992682	0.007653805089124721	-0.08312593545477076	0.6004271730847134	0.022051357040330677	-0.07724813308034228	0.584078586563807	0.018531870659420302	-0.07359615630289384	0.5639043444504589	0.01430508417642462	-0.06960288068265708	0.5318056180461508	-0.0012218874972554916	-0.064174403468362	0.462283081001861	-0.023011742144276925	-0.051989820119430985
2	0.06666666666666676	0.5058299814340116	-0.011518022849687393	-0.1662245387214507	0.4974391556209722	-0.016247018218537135	-0.1453623565494767	0.47968676288059264	-0.024014107250727612	-0.12100368499379976	0.47292879369588214	-0.030765455601467706	-0.07743030839815979	0.5734515722747894	0.027632877472525408	-0.16851813188166997	0.5600483927589764	0.020742375736805152	-0.15847443909978298	0.5413998953154108	0.012042483578112773	-0.1440329969098751	0.5113467651310502	-0.0033015267155949157	-0.11805210377225428	0.5917308848892232	0.038352589508553914	-0.1492310597801172	0.5782422094376983	0.03094587700673912	-0.13968138729992752	0.5556886987197627	0.020349357646531452	-0.12456641188662604	0.5224958513475497	0.002028510583117593	-0.1009289550182576	0.6032703963788352	0.03318305931443055	-0.11190379926184568	0.587379204162183	0.028121560977412363	-0.10505900236801635	0.5650103184793872	0.02160213744019146	-0.09626638904475804	0.5296908609303402	0.006846993290415715	-0.08324554139337936	0.6006265601853766	0.02237695081444302	-0.07637547606106931	0.5842980593646432	0.01862976291807583	-0.07286283548500261	0.5642018540374725	0.013871320134884568	-0.06907974511768578	0.5318223404734497	-0.001191334948489775	-0.06402336556344235	0.4622830810018609	-0.023011742144276925	-0.051989820119430985
3	0.10000000000000014	0.5058988673485207	-0.011439951938671866	-0.166270155897976	0.4975016244703432	-0.016288532370306807	-0.14543802734991684	0.4797570085028947	-0.02394432955489023	-0.12103849100931596	0.4726014333752242	-0.030820255176276068	-0.07754815424996875	0.5735607186767421	0.02724580796559728	-0.16857792996177678	0.5600695807446727	0.020552775755441344	-0.158518480815243	0.5413495096285929	0.011958058578422914	-0.1441066937277241	0.5110239190654716	-0.0029370376187757286	-0.1181812089632277	0.5920683793482268	0.03790089477782954	-0.14918113232820324	0.578425350417109	0.030731875174095702	-0.1396694069586415	0.5559560418697511	0.0201631704285391	-0.1244102391109218	0.5221961522523478	0.0026038257557254862	-0.10099897710559469	0.6033584368307413	0.032937137103592806	-0.1118852007227048	0.5874221532353525	0.028030633967448204	-0.10503238435697981	0.5650888196439966	0.02152569685888106	-0.09613924189152911	0.5297906918191335	0.0065567230456434755	-0.08330597149625418	0.600794994105438	0.022210558686061033	-0.07608433660918568	0.5844543850944413	0.018543370920759195	-0.07254368256738075	0.5643865606317051	0.013637490171555022	-0.06879844900892329	0.5317718355981756	-0.0009609170861063498	-0.06389440297256321	0.4622830810018609	-0.023011742144276925	-0.051989820119430985
4	0.13333333333333353	0.5061966374387925	-0.011122396754306707	-0.16615546007623316	0.49768181251098587	-0.016080527901557118	-0.14539697525735806	0.4798591770097852	-0.023734000032936242	-0.12105363883595632	0.47238157422716165	-0.03078701693704644	-0.07764591591507919	0.5740838113882083	0.02653984554911304	-0.1683070678608845	0.5603403269923071	0.02030721214887332	-0.1582935311451265	0.5413550916085155	0.012127089310083217	-0.1439877190128379	0.510648517972277	-0.0023544038754735874	-0.1182772389582194	0.5926044218844687	0.03717461728029425	-0.14898170778804226	0.5787133164515654	0.030435697418065177	-0.13951470462218135	0.5561039274584121	0.020238941013353773	-0.12420943630766762	0.5218358719591214	0.003361304259715703	-0.10103631241575817	0.6034534288850303	0.03224388642297649	-0.11205824179370105	0.587417161825528	0.027803001539504546	-0.10512162300295891	0.5650212179413642	0.021719389297930047	-0.09608883059797424	0.5297151223284151	0.006715246340552872	-0.08331870371199912	0.600936744807124	0.02163602615875082	-0.07629592658192264	0.5845609400608189	0.018311593251987723	-0.07258362746152236	0.5644725527093987	0.013578621148330416	-0.06872776339684106	0.5316624269672041	-0.0005625627639009867	-0.06378751873267363	0.4622830810018609	-0.023011742144276925	-0.051989820119430985
5	0.1666666666666669	0.5066783475569369	-0.010606073922613146	-0.1659081254063321	0.4979563411924439	-0.01566420416847858	-0.14526007650592493	0.4799867298010856	-0.0234089781637995	-0.12105405365612654	0.4722540274335545	-0.030681741524661632	-0.07772736180004225	0.5748887679230955	0.02557528590397884	-0.16774425105601387	0.5607783300313232	0.02002436859095258	-0.15784057196759543	0.5413908252892881	0.012507768651264128	-0.14371133921332863	0.5102290848101545	-0.0015979725014644286	-0.11834186758218579	0.5932668301691757	0.03621862783490715	-0.14864978003515522	0.5790658515655182	0.030070394936878353	-0.13924066536213442	0.5561452234005129	0.020527206223311834	-0.12397692061522447	0.5214238323188203	0.004259298647291021	-0.10104379816209541	0.6035075821566181	0.031182835135719067	-0.11238044378248291	0.5873465289892388	0.027476117465019434	-0.10530367865773416	0.5648272122507318	0.02214219217575053	-0.09610533132577825	0.5294914274067553	0.007244764574219964	-0.0832924552115969	0.6010231839354421	0.020725684991085624	-0.07692697795022596	0.5846107750464109	0.01796537210437632	-0.07292528990307412	0.5644708039901136	0.013666436673916427	-0.06883716820524755	0.5315024935006492	-3.0533456241266244e-05	-0.06370229101841629	0.462283081001861	-0.023011742144276925	-0.051989820119430985
